<svg xmlns="http://www.w3.org/2000/svg" viewBox="0 0 2048 2048"><rect width="2048" height="2048" rx="360" fill="#f1f0ea"/><path d="M 368.836 673.498 C 379.37 672.54 395.489 672.972 406.265 672.974 C 451.752 673.053 518.165 673.745 628.034 680.854 C 670.835 693.331 709.162 717.816 738.474 751.408 C 766.887 783.575 792.691 840.225 814.068 879.146 C 862.618 967.541 908.359 1058.83 957.383 1146.92 L 1049.78 971.291 L 1141.72 793.555 C 1157.15 763.772 1172.29 733.763 1188.42 704.345 C 1195.98 690.686 1210.16 680.804 1226.1 682.048 C 1254.84 684.29 1268.05 719.727 1280.4 742.523 C 1295.42 769.967 1310.18 797.549 1324.7 825.264 L 1470.93 1097 L 1536.03 1217.02 C 1559.41 1259.91 1577.01 1303.03 1619.19 1330.98 C 1650.84 1351.95 1679.32 1356.84 1715.9 1359.96 L 1716.55 1385.02 C 1633.85 1384.57 1545.37 1385.32 1445.51 1376.08 C 1389.93 1359.35 1339.24 1316.4 1311.81 1265.59 C 1294.37 1232.81 1242.63 1133.69 1122.6 907.252 C 1099.58 948.226 1076.58 994.958 1054.68 1036.97 L 960.016 1217.53 C 928.743 1278.23 892.623 1351.66 879.699 1364.35 C 865.927 1377.87 837.024 1375.08 825.53 1358.79 C 809.575 1331.69 757.867 1234.1 576.888 894.154 C 553.431 850.009 514.261 770.467 487.681 745.113 C 451.169 710.284 416.431 699.772 368.119 694.312 L 368.836 673.498 z" fill="#1b4638"/></svg>
